<svg width="12" height="18" viewBox="0 0 12 18" fill="none" xmlns="http://www.w3.org/2000/svg">
<path d="M6 0.769989L5.25 1.60999C5.25 1.60999 3.97 3.05999 2.68 4.93999C1.39 6.81999 0 9.06999 0 11.23C0 12.8213 0.632141 14.3474 1.75736 15.4726C2.88258 16.5978 4.4087 17.23 6 17.23C7.5913 17.23 9.11742 16.5978 10.2426 15.4726C11.3679 14.3474 12 12.8213 12 11.23C12 9.06999 10.61 6.81999 9.32 4.93999C8.52434 3.78422 7.6664 2.67258 6.75 1.60999L6 0.769989ZM6 3.89999C6.44 4.41999 6.84 4.84999 7.68 6.06999C8.89 7.82999 10 10.07 10 11.23C10 13.45 8.22 15.23 6 15.23C3.78 15.23 2 13.45 2 11.23C2 10.07 3.11 7.82999 4.32 6.06999C5.16 4.84999 5.56 4.41999 6 3.89999Z" fill="white"/>
</svg>
